<svg width="216" height="258" viewBox="0 0 216 258" fill="none" xmlns="http://www.w3.org/2000/svg">
<path d="M44.4673 49.4807C36.834 35.534 31.084 24.764 27.2173 17.1707C25.3173 13.4374 23.3406 10.2273 21.2873 7.54072C20.7873 6.88732 20.6606 6.95402 20.9073 7.74072L36.4073 56.5007L82.6273 201.691C82.7053 201.942 82.7008 202.212 82.6144 202.46C82.528 202.708 82.3643 202.922 82.1473 203.071L1.1773 257.271C0.330631 257.838 -0.0593674 257.614 0.0072993 256.601C4.00063 200.594 8.00063 144.871 12.0073 89.4307C12.934 76.6307 13.7573 66.9873 14.4773 60.5007C14.7573 58.0507 14.1673 55.8807 14.4573 53.5107C16.7173 35.3407 16.4373 18.6607 18.7073 1.29072C18.7606 0.864022 18.954 0.790721 19.2873 1.07072L215.777 165.861C216.077 166.121 216.034 166.294 215.647 166.381C183.281 173.648 150.911 180.604 118.537 187.251C118.511 187.257 118.483 187.254 118.46 187.243C118.436 187.232 118.418 187.214 118.407 187.191L44.4673 49.4807Z" fill="white"/>
<path d="M44.4674 49.4804L42.9774 51.8004C39.3907 44.487 35.6341 37.2604 31.7074 30.1204C31.3807 29.527 30.9574 29.3504 30.4374 29.5904C30.2845 29.6587 30.1628 29.7818 30.0961 29.9354C30.0295 30.089 30.0228 30.2621 30.0774 30.4204L39.0374 55.9804C38.2441 56.787 37.3674 56.9604 36.4074 56.5004L20.9074 7.74037C20.6607 6.95367 20.7874 6.88697 21.2874 7.54037C23.3407 10.227 25.3174 13.437 27.2174 17.1704C31.0841 24.7637 36.8341 35.5337 44.4674 49.4804Z" fill="#DEBE04"/>
<path d="M42.9773 51.8L115.837 203.24C116.011 203.593 116.281 203.7 116.647 203.56L131.087 197.97C131.527 197.797 131.794 197.943 131.887 198.41C132.054 199.23 131.837 199.917 131.237 200.47C131.127 200.57 131.04 200.694 130.981 200.832C130.923 200.97 130.894 201.119 130.897 201.27C130.957 203.53 129.647 205.07 129.117 206.51C127.631 210.523 126.114 214.527 124.567 218.52C123.097 222.31 123.057 227.22 121.077 230.24C119.877 232.067 119.107 233.977 118.767 235.97C118.743 236.11 118.687 236.243 118.604 236.358C118.521 236.473 118.412 236.568 118.287 236.634C118.161 236.701 118.022 236.738 117.88 236.742C117.738 236.747 117.597 236.719 117.467 236.66L80.8473 219.89C80.7735 219.856 80.7107 219.801 80.6667 219.733C80.6226 219.664 80.5991 219.585 80.5991 219.504C80.5991 219.423 80.6226 219.345 80.6667 219.279C80.7107 219.212 80.7735 219.161 80.8473 219.13L95.7373 212.6C95.9978 212.485 96.2048 212.276 96.3162 212.014C96.4277 211.752 96.4352 211.457 96.3373 211.19L39.0373 55.98L30.0773 30.42C30.0228 30.2617 30.0295 30.0887 30.0961 29.9351C30.1627 29.7814 30.2845 29.6583 30.4373 29.59C30.9573 29.35 31.3807 29.5267 31.7073 30.12C35.634 37.26 39.3907 44.4867 42.9773 51.8Z" fill="#FCDE02"/>
</svg>
