<svg width="217" height="258" viewBox="0 0 217 258" fill="none" xmlns="http://www.w3.org/2000/svg">
<path d="M44.5901 49.4807C36.9567 35.534 31.2067 24.764 27.3401 17.1707C25.4401 13.4374 23.4634 10.2273 21.4101 7.54072C20.9101 6.88732 20.7834 6.95402 21.0301 7.74072L36.5301 56.5007L82.7501 201.691C82.8281 201.942 82.8236 202.212 82.7372 202.46C82.6508 202.708 82.4871 202.922 82.2701 203.071L1.3001 257.271C0.453433 257.838 0.0634353 257.614 0.130102 256.601C4.12343 200.594 8.12343 144.871 12.1301 89.4307C13.0567 76.6307 13.8801 66.9873 14.6001 60.5007C14.8801 58.0507 14.2901 55.8807 14.5801 53.5107C16.8401 35.3407 16.5601 18.6607 18.8301 1.29072C18.8834 0.864022 19.0767 0.790721 19.4101 1.07072L215.9 165.861C216.2 166.121 216.157 166.294 215.77 166.381C183.403 173.648 151.033 180.604 118.66 187.251C118.633 187.257 118.606 187.254 118.582 187.243C118.559 187.232 118.54 187.214 118.53 187.191L44.5901 49.4807Z" fill="#2163D1"/>
<path d="M44.5899 49.4804L43.0999 51.8004C39.5133 44.487 35.7566 37.2604 31.8299 30.1204C31.5033 29.527 31.0799 29.3504 30.5599 29.5904C30.4071 29.6587 30.2853 29.7818 30.2187 29.9354C30.1521 30.089 30.1454 30.2621 30.1999 30.4204L39.16 55.9804C38.3666 56.787 37.4899 56.9604 36.5299 56.5004L21.0299 7.74037C20.7833 6.95367 20.9099 6.88697 21.4099 7.54037C23.4633 10.227 25.4399 13.437 27.3399 17.1704C31.2066 24.7637 36.9566 35.5337 44.5899 49.4804Z" fill="#DEBE04"/>
<path d="M43.1001 51.8L115.96 203.24C116.133 203.593 116.403 203.7 116.77 203.56L131.21 197.97C131.65 197.797 131.917 197.943 132.01 198.41C132.177 199.23 131.96 199.917 131.36 200.47C131.25 200.57 131.163 200.694 131.104 200.832C131.045 200.97 131.017 201.119 131.02 201.27C131.08 203.53 129.77 205.07 129.24 206.51C127.753 210.523 126.237 214.527 124.69 218.52C123.22 222.31 123.18 227.22 121.2 230.24C120 232.067 119.23 233.977 118.89 235.97C118.866 236.11 118.81 236.243 118.727 236.358C118.644 236.473 118.535 236.568 118.409 236.634C118.284 236.701 118.145 236.738 118.003 236.742C117.861 236.747 117.719 236.719 117.59 236.66L80.9701 219.89C80.8963 219.856 80.8335 219.801 80.7894 219.733C80.7453 219.664 80.7219 219.585 80.7219 219.504C80.7219 219.423 80.7453 219.345 80.7894 219.279C80.8335 219.212 80.8963 219.161 80.9701 219.13L95.8601 212.6C96.1206 212.485 96.3276 212.276 96.439 212.014C96.5504 211.752 96.558 211.457 96.4601 211.19L39.1601 55.98L30.2001 30.42C30.1456 30.2617 30.1523 30.0887 30.2189 29.9351C30.2855 29.7814 30.4073 29.6583 30.5601 29.59C31.0801 29.35 31.5035 29.5267 31.8301 30.12C35.7568 37.26 39.5135 44.4867 43.1001 51.8Z" fill="#FCDE02"/>
</svg>
