<svg width="886" height="566" viewBox="0 0 886 566" fill="none" xmlns="http://www.w3.org/2000/svg">
<path d="M589.072 9.56461C591.643 9.4344 593.631 7.45085 593.514 5.13423C593.397 2.8176 591.218 1.04516 588.648 1.17537C586.077 1.30558 584.089 3.28913 584.206 5.60575C584.323 7.92238 586.502 9.69482 589.072 9.56461Z" fill="#DEBE04"/>
<path d="M366.34 47.29L374.59 47.09C375.03 47.0833 375.25 46.8567 375.25 46.41V9.13C375.25 8.89661 375.343 8.67278 375.508 8.50775C375.673 8.34272 375.897 8.25 376.13 8.25H388C388.133 8.25 388.26 8.30269 388.354 8.39645C388.447 8.49022 388.5 8.61739 388.5 8.75L388.49 17.41C388.491 17.548 388.455 17.6836 388.385 17.8025C388.315 17.9213 388.214 18.0189 388.092 18.0847C387.971 18.1505 387.834 18.182 387.696 18.1759C387.559 18.1698 387.425 18.1262 387.31 18.05C386.697 17.6433 386.097 17.5933 385.51 17.9C385.363 17.9754 385.239 18.0909 385.153 18.2338C385.067 18.3767 385.021 18.5414 385.02 18.71C385.02 31.1833 384.903 43.6567 384.67 56.13C384.663 56.5433 384.453 56.75 384.04 56.75H284.93C284.543 56.75 284.34 56.9433 284.32 57.33L283.97 63.2C283.95 63.54 283.773 63.7233 283.44 63.75C269.83 64.81 252.27 66.14 251.1 48.53C250.627 41.4367 250.553 34.3467 250.88 27.26C250.893 26.9267 251.067 26.76 251.4 26.76L259.71 26.75C259.879 26.7498 260.041 26.8145 260.163 26.9302C260.284 27.0459 260.355 27.2037 260.36 27.37C260.52 32.73 260.537 38.1067 260.41 43.5C260.18 53.58 264.94 55.19 274.21 54.38C274.557 54.3533 274.727 54.1667 274.72 53.82L274.42 27.45C274.419 27.3577 274.436 27.2661 274.471 27.1805C274.505 27.095 274.557 27.0173 274.622 26.952C274.687 26.8868 274.765 26.8352 274.851 26.8005C274.936 26.7658 275.028 26.7487 275.12 26.75L283.68 26.77C283.836 26.77 283.987 26.8322 284.097 26.9428C284.208 27.0535 284.27 27.2035 284.27 27.36L284.22 46.57C284.22 46.6667 284.239 46.7625 284.276 46.8517C284.313 46.9409 284.367 47.0218 284.434 47.0898C284.502 47.1577 284.583 47.2112 284.671 47.2473C284.76 47.2834 284.855 47.3013 284.95 47.3L299.44 47.13C299.589 47.1274 299.732 47.0662 299.837 46.9596C299.941 46.853 300 46.7095 300 46.56V23.39C300 22.99 300.203 22.7867 300.61 22.78L309 22.68C309.333 22.68 309.5 22.8467 309.5 23.18V46.53C309.5 47.05 309.76 47.3 310.28 47.28L322.79 46.92C323.097 46.9133 323.25 46.76 323.25 46.46V23.33C323.25 22.8767 323.473 22.66 323.92 22.68L332.25 22.98C332.75 22.9933 333 23.25 333 23.75V24.99C333 25.3367 333.173 25.5067 333.52 25.5C337.273 25.46 343.113 25.51 351.04 25.65C364.42 25.89 366.35 35.78 365.83 46.76C365.817 47.12 365.987 47.2967 366.34 47.29ZM353.9 36.07C351.49 34.37 337.41 35.22 333.6 35.17C333.526 35.1687 333.452 35.1822 333.383 35.2097C333.314 35.2373 333.251 35.2783 333.198 35.3304C333.144 35.3826 333.102 35.4448 333.074 35.5134C333.045 35.582 333.03 35.6556 333.03 35.73L332.94 46.47C332.94 46.6106 332.996 46.7454 333.095 46.8448C333.195 46.9442 333.329 47 333.47 47H355.72C356.027 47 356.187 46.85 356.2 46.55C356.38 43.33 356.87 38.17 353.9 36.07Z" fill="#DEBE04"/>
<path d="M405.84 8.26001H397.68C397.31 8.26001 397.01 8.55996 397.01 8.92999V56.07C397.01 56.44 397.31 56.74 397.68 56.74H405.84C406.21 56.74 406.51 56.44 406.51 56.07V8.92999C406.51 8.55996 406.21 8.26001 405.84 8.26001Z" fill="#DEBE04"/>
<path d="M646.5 46.56V23.21C646.5 23.1395 646.514 23.0698 646.541 23.0049C646.569 22.9399 646.608 22.881 646.659 22.8317C646.709 22.7823 646.769 22.7435 646.834 22.7174C646.9 22.6914 646.97 22.6787 647.04 22.68L655.12 22.74C655.354 22.7426 655.578 22.8365 655.743 23.0013C655.908 23.166 656 23.3883 656 23.62V46.4C656 46.5726 656.068 46.7386 656.189 46.8635C656.31 46.9883 656.475 47.0623 656.65 47.07L664.13 47.32C664.677 47.34 664.947 47.0733 664.94 46.52C664.48 18.09 702.33 20.57 701.29 44.77C700.6 60.75 682.07 67.32 670.32 57.12C670.04 56.8733 669.71 56.75 669.33 56.75H625.74C625.538 56.75 625.345 56.6699 625.203 56.5274C625.06 56.3849 624.98 56.1916 624.98 55.99L625.01 8.87C625.01 8.70556 625.075 8.54785 625.192 8.43158C625.308 8.31531 625.466 8.25 625.63 8.25H633.88C634.293 8.25 634.5 8.46 634.5 8.88V46.78C634.5 46.8491 634.514 46.9176 634.541 46.9813C634.567 47.0451 634.606 47.1029 634.656 47.1513C634.705 47.1997 634.764 47.2378 634.828 47.2633C634.892 47.2889 634.961 47.3013 635.03 47.3L645.95 47.12C646.317 47.1133 646.5 46.9267 646.5 46.56ZM691.7 43.97C691.7 41.6971 690.797 39.5173 689.19 37.9101C687.583 36.3029 685.403 35.4 683.13 35.4C682.005 35.4 680.89 35.6217 679.85 36.0523C678.811 36.483 677.866 37.1143 677.07 37.9101C676.274 38.7059 675.643 39.6506 675.212 40.6904C674.782 41.7302 674.56 42.8446 674.56 43.97C674.56 45.0954 674.782 46.2098 675.212 47.2496C675.643 48.2894 676.274 49.2341 677.07 50.0299C677.866 50.8257 678.811 51.457 679.85 51.8876C680.89 52.3183 682.005 52.54 683.13 52.54C685.403 52.54 687.583 51.6371 689.19 50.0299C690.797 48.4227 691.7 46.2429 691.7 43.97Z" fill="#DEBE04"/>
<path d="M767.75 47H775.99C776.317 47 776.48 46.8367 776.48 46.51L776.54 8.89998C776.54 8.76644 776.592 8.63823 776.686 8.54287C776.779 8.44751 776.906 8.39262 777.04 8.39L785.48 8.20998C785.582 8.20728 785.684 8.22529 785.779 8.2629C785.875 8.30051 785.961 8.35694 786.034 8.42885C786.107 8.50076 786.164 8.58665 786.203 8.68136C786.242 8.77606 786.261 8.87765 786.26 8.98L786.22 46.77C786.22 46.831 786.244 46.8895 786.287 46.9326C786.33 46.9758 786.389 47 786.45 47H796C796.333 47 796.5 46.8333 796.5 46.5L796.57 9.20998C796.573 8.95446 796.676 8.71029 796.858 8.53054C797.039 8.35079 797.284 8.24998 797.54 8.24999H805.75C805.883 8.24999 806.01 8.30268 806.104 8.39644C806.197 8.49021 806.25 8.61738 806.25 8.74999V25.01C806.25 25.3767 806.433 25.5566 806.8 25.55C817.06 25.39 833.78 22.67 838.08 34.51C840.07 39.97 839.26 49.38 839.25 56.02C839.247 56.2118 839.169 56.395 839.033 56.5297C838.896 56.6645 838.712 56.74 838.52 56.74C805.987 56.7533 773.397 56.7567 740.75 56.75C721.64 56.75 721.53 42.58 722.34 28.13C722.36 27.71 722.583 27.5 723.01 27.5H731C731.175 27.4995 731.343 27.5653 731.471 27.6841C731.599 27.8029 731.677 27.9658 731.69 28.14C732.09 33.75 729.91 45.6 737.56 46.71C743.253 47.53 749.843 47.5933 757.33 46.9C757.61 46.8733 757.75 46.7233 757.75 46.45V23.33C757.75 23.1523 757.821 22.9819 757.946 22.8562C758.072 22.7306 758.242 22.66 758.42 22.66L766.61 22.72C766.781 22.7226 766.943 22.7912 767.063 22.9109C767.183 23.0307 767.25 23.192 767.25 23.36V46.5C767.25 46.8333 767.417 47 767.75 47ZM806.73 46.97L829.11 47.19C829.483 47.19 829.683 47.0033 829.71 46.63C830.01 42.33 830.21 35.66 824.17 35.28C818.357 34.92 812.527 34.8533 806.68 35.08C806.393 35.0933 806.25 35.2433 806.25 35.53V46.48C806.25 46.8 806.41 46.9633 806.73 46.97Z" fill="#DEBE04"/>
<path d="M582.828 18.8096C585.672 18.7749 587.951 16.6336 587.92 14.027C587.888 11.4205 585.556 9.33556 582.712 9.37031C579.868 9.40506 577.589 11.5463 577.62 14.1529C577.652 16.7595 579.984 18.8444 582.828 18.8096Z" fill="#DEBE04"/>
<path d="M594.884 18.8086C597.733 18.8782 600.095 16.8176 600.158 14.2061C600.222 11.5945 597.964 9.42104 595.116 9.35141C592.267 9.28179 589.905 11.3424 589.842 13.9539C589.778 16.5655 592.035 18.739 594.884 18.8086Z" fill="#DEBE04"/>
<path d="M447.165 23.0999C450.203 23.0787 452.649 20.814 452.63 18.0416C452.611 15.2692 450.132 13.0389 447.095 13.0601C444.057 13.0813 441.611 15.346 441.63 18.1184C441.649 20.8908 444.128 23.1211 447.165 23.0999Z" fill="#DEBE04"/>
<path d="M268.044 23.1398C271.087 23.1133 273.534 20.8353 273.51 18.0519C273.486 15.2685 270.999 13.0336 267.956 13.0602C264.913 13.0867 262.466 15.3647 262.49 18.1481C262.515 20.9315 265.001 23.1664 268.044 23.1398Z" fill="#DEBE04"/>
<path d="M44.59 64.48C36.9566 50.5333 31.2066 39.7633 27.34 32.17C25.44 28.4367 23.4633 25.2266 21.41 22.54C20.91 21.8866 20.7833 21.9533 21.03 22.74L36.53 71.5L82.75 216.69C82.828 216.941 82.8235 217.211 82.7371 217.459C82.6507 217.707 82.487 217.921 82.27 218.07L1.29998 272.27C0.453311 272.837 0.0633133 272.613 0.12998 271.6C4.12331 215.593 8.12331 159.87 12.13 104.43C13.0566 91.63 13.88 81.9866 14.6 75.5C14.88 73.05 14.29 70.88 14.58 68.51C16.84 50.34 16.56 33.66 18.83 16.29C18.8833 15.8633 19.0766 15.79 19.41 16.07L215.9 180.86C216.2 181.12 216.157 181.293 215.77 181.38C183.403 188.647 151.033 195.603 118.66 202.25C118.633 202.256 118.606 202.253 118.582 202.242C118.559 202.231 118.54 202.213 118.53 202.19L44.59 64.48Z" fill="#2163D1"/>
<path d="M572.49 47.07C577.66 47.87 583.91 47.28 583.97 40.65C584.017 35.8767 584.023 31.1633 583.99 26.51C583.989 26.3778 584.014 26.2467 584.063 26.1242C584.113 26.0018 584.186 25.8903 584.279 25.7964C584.372 25.7025 584.483 25.6279 584.605 25.5771C584.727 25.5262 584.858 25.5 584.99 25.5H593.21C593.543 25.5 593.71 25.6667 593.71 26C593.783 30.28 593.793 34.5333 593.74 38.76C593.67 44.5 595.21 48.53 601.77 47.46C605.6 46.84 606.25 44.21 606.35 40.56C606.543 33.42 606.577 26.2667 606.45 19.1C606.443 18.7 606.643 18.5 607.05 18.5H615.2C615.6 18.5 615.807 18.7 615.82 19.1C616.12 25.8867 616.083 33.8467 615.71 42.98C615.1 58.07 598.7 61.17 588.62 52.83C588.353 52.61 588.087 52.61 587.82 52.83C584.753 55.3567 581.293 56.6467 577.44 56.7C572.727 56.76 562.46 56.7733 546.64 56.74C546.293 56.74 546.103 56.9133 546.07 57.26C545.13 66.9933 539.657 70.89 529.65 68.95C529.478 68.919 529.322 68.8311 529.206 68.7006C529.09 68.57 529.021 68.4044 529.01 68.23L528.42 59.8C528.413 59.7053 528.429 59.6103 528.468 59.5236C528.507 59.4369 528.567 59.3613 528.643 59.3037C528.718 59.2461 528.807 59.2082 528.901 59.1936C528.994 59.179 529.091 59.1881 529.18 59.22C531.193 59.9333 533.243 59.9733 535.33 59.34C535.475 59.2959 535.608 59.2224 535.722 59.1241C535.836 59.0259 535.927 58.9053 535.99 58.77C536.303 58.0767 536.46 57.3 536.46 56.44C536.467 45.3533 536.487 34.2633 536.52 23.17C536.52 23.1088 536.532 23.0481 536.556 22.9916C536.58 22.9352 536.614 22.884 536.658 22.8412C536.702 22.7983 536.754 22.7646 536.811 22.7421C536.868 22.7196 536.929 22.7087 536.99 22.71L545.64 22.77C545.804 22.77 545.962 22.8353 546.078 22.9516C546.195 23.0679 546.26 23.2256 546.26 23.39L546.23 46.64C546.23 46.7275 546.247 46.8142 546.281 46.8949C546.315 46.9756 546.364 47.0488 546.427 47.1103C546.489 47.1717 546.563 47.2201 546.644 47.2527C546.726 47.2852 546.813 47.3013 546.9 47.3L561.96 47.08C562.104 47.0774 562.241 47.0193 562.342 46.9183C562.443 46.8173 562.5 46.6815 562.5 46.54V26.13C562.5 25.71 562.707 25.5 563.12 25.5H571.25C571.449 25.5 571.64 25.579 571.78 25.7197C571.921 25.8603 572 26.0511 572 26.25V46.5C572 46.8267 572.163 47.0167 572.49 47.07Z" fill="#DEBE04"/>
<path d="M44.5899 64.48L43.0999 66.8C39.5133 59.4866 35.7566 52.26 31.8299 45.12C31.5033 44.5266 31.0799 44.35 30.5599 44.59C30.4071 44.6583 30.2853 44.7814 30.2187 44.935C30.1521 45.0886 30.1454 45.2617 30.1999 45.42L39.16 70.98C38.3666 71.7866 37.4899 71.96 36.5299 71.5L21.0299 22.74C20.7833 21.9533 20.9099 21.8866 21.4099 22.54C23.4633 25.2266 25.4399 28.4366 27.3399 32.17C31.2066 39.7633 36.9566 50.5333 44.5899 64.48Z" fill="#DEBE04"/>
<path d="M463.5 57.25V63.22C463.5 63.54 463.337 63.7133 463.01 63.74C452.99 64.53 437.62 65.58 432.25 56.59C428.58 50.43 429.79 34.49 430.14 27.33C430.148 27.1735 430.215 27.0259 430.329 26.9179C430.443 26.81 430.593 26.7498 430.75 26.75H438.74C438.848 26.75 438.955 26.7716 439.055 26.8135C439.154 26.8555 439.244 26.9169 439.32 26.9943C439.395 27.0716 439.455 27.1633 439.494 27.2639C439.534 27.3645 439.553 27.4719 439.55 27.58C439.383 34.26 439.47 40.6967 439.81 46.89C440.25 55.02 447.37 54.64 453.29 54.22C453.597 54.2 453.75 54.0367 453.75 53.73V27.48C453.75 27.3785 453.77 27.278 453.81 27.1845C453.849 27.0909 453.907 27.0062 453.98 26.9354C454.052 26.8646 454.138 26.809 454.233 26.772C454.328 26.735 454.429 26.7173 454.53 26.72L463.02 26.89C463.307 26.8967 463.45 27.0467 463.45 27.34L463.22 46.62C463.219 46.6983 463.233 46.7761 463.262 46.8488C463.291 46.9216 463.334 46.9878 463.389 47.0437C463.444 47.0995 463.51 47.1439 463.582 47.1742C463.654 47.2044 463.732 47.22 463.81 47.22L471.72 47.26C472.167 47.2667 472.373 47.0467 472.34 46.6C470.93 25.1 498.45 17.45 507.2 36.89C510.52 44.24 507.91 54.16 501.04 58.82C493.59 63.88 484.43 63.21 477.65 57.09C477.412 56.8711 477.098 56.7497 476.77 56.75H464C463.667 56.75 463.5 56.9167 463.5 57.25ZM499.03 44C499.03 41.7297 498.128 39.5525 496.523 37.9472C494.918 36.3419 492.74 35.44 490.47 35.44C489.346 35.44 488.233 35.6614 487.194 36.0916C486.156 36.5218 485.212 37.1523 484.417 37.9472C483.622 38.742 482.992 39.6857 482.562 40.7242C482.131 41.7628 481.91 42.8759 481.91 44C481.91 45.1241 482.131 46.2372 482.562 47.2758C482.992 48.3143 483.622 49.258 484.417 50.0528C485.212 50.8477 486.156 51.4782 487.194 51.9084C488.233 52.3386 489.346 52.56 490.47 52.56C492.74 52.56 494.918 51.6581 496.523 50.0528C498.128 48.4475 499.03 46.2703 499.03 44Z" fill="#DEBE04"/>
<path d="M43.1 66.8L115.96 218.24C116.133 218.593 116.403 218.7 116.77 218.56L131.21 212.97C131.65 212.797 131.917 212.943 132.01 213.41C132.177 214.23 131.96 214.917 131.36 215.47C131.25 215.57 131.163 215.694 131.104 215.832C131.045 215.97 131.017 216.119 131.02 216.27C131.08 218.53 129.77 220.07 129.24 221.51C127.753 225.523 126.237 229.527 124.69 233.52C123.22 237.31 123.18 242.22 121.2 245.24C120 247.067 119.23 248.977 118.89 250.97C118.866 251.11 118.81 251.243 118.727 251.358C118.644 251.473 118.535 251.568 118.409 251.634C118.284 251.701 118.145 251.738 118.003 251.742C117.861 251.747 117.719 251.719 117.59 251.66L80.97 234.89C80.8962 234.856 80.8334 234.801 80.7893 234.733C80.7452 234.664 80.7218 234.585 80.7218 234.504C80.7218 234.423 80.7452 234.345 80.7893 234.279C80.8334 234.212 80.8962 234.161 80.97 234.13L95.86 227.6C96.1205 227.485 96.3275 227.276 96.4389 227.014C96.5503 226.752 96.5579 226.457 96.46 226.19L39.16 70.98L30.2 45.42C30.1455 45.2617 30.1522 45.0887 30.2188 44.9351C30.2854 44.7814 30.4072 44.6583 30.56 44.59C31.08 44.35 31.5034 44.5267 31.83 45.12C35.7567 52.26 39.5134 59.4867 43.1 66.8Z" fill="#FCDE02"/>
<path d="M651.353 69.0897C654.396 69.0578 656.839 66.7667 656.81 63.9723C656.78 61.1779 654.29 58.9384 651.247 58.9703C648.204 59.0021 645.761 61.2933 645.79 64.0877C645.82 66.8821 648.31 69.1216 651.353 69.0897Z" fill="#DEBE04"/>
<path d="M747.748 69.0796C750.769 69.1165 753.245 66.8812 753.28 64.0868C753.314 61.2925 750.893 58.9973 747.872 58.9604C744.851 58.9235 742.375 61.1588 742.34 63.9532C742.306 66.7475 744.727 69.0427 747.748 69.0796Z" fill="#DEBE04"/>
<path d="M298.211 69.0787C301.082 69.0136 303.36 66.781 303.299 64.092C303.238 61.4031 300.861 59.2761 297.99 59.3413C295.118 59.4064 292.84 61.639 292.901 64.328C292.962 67.0169 295.339 69.1439 298.211 69.0787Z" fill="#DEBE04"/>
<path d="M310.677 69.0295C313.565 68.9892 315.877 66.7987 315.84 64.137C315.802 61.4752 313.431 59.3501 310.543 59.3905C307.655 59.4308 305.343 61.6213 305.381 64.283C305.418 66.9448 307.789 69.0699 310.677 69.0295Z" fill="#DEBE04"/>
<path d="M410 173.75V227.28C410 227.349 409.986 227.418 409.959 227.481C409.933 227.545 409.894 227.603 409.844 227.651C409.795 227.7 409.736 227.738 409.672 227.763C409.608 227.789 409.539 227.801 409.47 227.8L386.05 227.6C385.683 227.593 385.5 227.41 385.5 227.05V94.98C385.5 94.6042 385.648 94.2434 385.912 93.9758C386.176 93.7082 386.534 93.5552 386.91 93.55C408.17 93.2166 429.253 93.2433 450.16 93.63C465.49 93.91 477.47 99.55 486.12 112.66C492.01 121.58 492.93 136.15 489.43 146.04C485.397 157.4 477.203 165.91 464.85 171.57C464.27 171.837 464.163 172.23 464.53 172.75L503 227.06C503.036 227.112 503.058 227.173 503.062 227.236C503.066 227.299 503.053 227.362 503.025 227.419C502.996 227.475 502.952 227.523 502.899 227.557C502.845 227.59 502.783 227.609 502.72 227.61L474.99 227.81C474.756 227.813 474.524 227.759 474.315 227.65C474.106 227.542 473.925 227.384 473.79 227.19L436.41 174.15C436.212 173.872 435.951 173.645 435.648 173.488C435.346 173.332 435.01 173.25 434.67 173.25H410.5C410.167 173.25 410 173.417 410 173.75ZM409.95 118.5V148.26C409.95 148.411 410.01 148.556 410.117 148.663C410.224 148.77 410.369 148.83 410.52 148.83H452.14C456.333 148.83 460.354 147.209 463.319 144.322C466.284 141.436 467.95 137.522 467.95 133.44V133.32C467.95 129.238 466.284 125.324 463.319 122.438C460.354 119.551 456.333 117.93 452.14 117.93H410.52C410.369 117.93 410.224 117.99 410.117 118.097C410.01 118.204 409.95 118.349 409.95 118.5Z" fill="#2163D1"/>
<path d="M669.18 203.25H749.67C749.824 203.25 749.971 203.311 750.08 203.42C750.189 203.529 750.25 203.676 750.25 203.83V227.17C750.25 227.324 750.189 227.471 750.08 227.58C749.971 227.689 749.824 227.75 749.67 227.75H644.91C644.756 227.75 644.609 227.689 644.5 227.58C644.391 227.471 644.33 227.324 644.33 227.17L644.24 94.06C644.24 93.9061 644.301 93.7586 644.41 93.6498C644.519 93.5411 644.666 93.48 644.82 93.48L749.72 93.47C749.874 93.47 750.021 93.5311 750.13 93.6399C750.239 93.7486 750.3 93.8961 750.3 94.05L750.22 117.42C750.22 117.574 750.159 117.721 750.05 117.83C749.941 117.939 749.794 118 749.64 118H669.17C669.016 118 668.869 118.061 668.76 118.17C668.651 118.279 668.59 118.426 668.59 118.58L668.46 148.17C668.46 148.324 668.521 148.471 668.63 148.58C668.739 148.689 668.886 148.75 669.04 148.75H736.38C736.457 148.75 736.533 148.765 736.604 148.795C736.675 148.825 736.74 148.868 736.794 148.923C736.848 148.978 736.89 149.043 736.919 149.115C736.947 149.186 736.961 149.263 736.96 149.34L736.76 172.37C736.757 172.522 736.695 172.667 736.587 172.774C736.478 172.88 736.332 172.94 736.18 172.94L669.03 173.32C668.876 173.32 668.729 173.381 668.62 173.49C668.511 173.599 668.45 173.746 668.45 173.9L668.6 202.67C668.6 202.824 668.661 202.971 668.77 203.08C668.879 203.189 669.026 203.25 669.18 203.25Z" fill="#2163D1"/>
<path d="M786.25 173.79L786.16 226.9C786.16 227.015 786.137 227.129 786.094 227.235C786.05 227.341 785.985 227.438 785.905 227.519C785.824 227.6 785.728 227.664 785.622 227.707C785.517 227.75 785.404 227.771 785.29 227.77L762.32 227.69C761.907 227.69 761.697 227.483 761.69 227.07L761.52 94.88C761.52 94.0467 761.933 93.6233 762.76 93.61C783.867 93.1767 805.193 93.18 826.74 93.62C831.86 93.7267 835.983 94.2534 839.11 95.2C870.78 104.83 877.35 143.4 852.94 164.36C849.45 167.36 844.9 169.51 840.58 171.58C840.22 171.753 840.153 172.003 840.38 172.33L878.95 226.82C879.013 226.909 879.051 227.013 879.059 227.121C879.067 227.229 879.046 227.338 878.997 227.434C878.949 227.53 878.875 227.61 878.783 227.666C878.692 227.722 878.587 227.751 878.48 227.75H851.94C851.485 227.75 851.038 227.641 850.634 227.433C850.23 227.224 849.882 226.921 849.62 226.55L812.42 174C812.223 173.716 811.96 173.485 811.653 173.327C811.346 173.168 811.005 173.087 810.66 173.09L786.72 173.32C786.407 173.32 786.25 173.477 786.25 173.79ZM786.11 118.45V148.29C786.11 148.42 786.162 148.545 786.254 148.636C786.345 148.728 786.47 148.78 786.6 148.78H828.48C832.631 148.78 836.611 147.158 839.546 144.269C842.481 141.381 844.13 137.464 844.13 133.38V133.36C844.13 129.276 842.481 125.359 839.546 122.471C836.611 119.582 832.631 117.96 828.48 117.96H786.6C786.47 117.96 786.345 118.012 786.254 118.104C786.162 118.195 786.11 118.32 786.11 118.45Z" fill="#2163D1"/>
<path d="M296.5 227.71C277.85 227.58 262.08 216.73 257.05 198.6C256.09 195.133 255.547 189.643 255.42 182.13C255.207 169.243 255.17 156.353 255.31 143.46C255.417 134.333 255.987 127.707 257.02 123.58C261.92 104.06 277.77 93.88 297.76 93.66C306.46 93.5666 319.207 93.6333 336 93.86C356.28 94.13 374.13 108.74 374.66 129.82C374.86 137.747 374.883 153.97 374.73 178.49C374.663 189.323 374.377 195.97 373.87 198.43C371.08 211.98 359.97 222.17 346.83 226.02C343.603 226.967 339.303 227.48 333.93 227.56C321.443 227.747 308.967 227.797 296.5 227.71ZM351.25 132.34C351.25 128.537 349.739 124.889 347.05 122.2C344.361 119.511 340.713 118 336.91 118H294.19C290.387 118 286.739 119.511 284.05 122.2C281.361 124.889 279.85 128.537 279.85 132.34V188.88C279.85 192.683 281.361 196.331 284.05 199.02C286.739 201.709 290.387 203.22 294.19 203.22H336.91C340.713 203.22 344.361 201.709 347.05 199.02C349.739 196.331 351.25 192.683 351.25 188.88V132.34Z" fill="#2163D1"/>
<path d="M591.32 93.66C616.6 93.87 633.61 110.52 633.55 136.07C633.53 143.87 633.513 151.677 633.5 159.49C633.46 184.87 638.5 218.21 605.62 226.32C601.747 227.273 595.117 227.75 585.73 227.75C562.063 227.763 538.387 227.76 514.7 227.74C514.4 227.74 514.25 227.59 514.25 227.29V95.03C514.25 94.6402 514.404 94.2663 514.678 93.9906C514.951 93.7149 515.323 93.56 515.71 93.56C540.817 93.4067 566.02 93.44 591.32 93.66ZM537.56 118.71V202.55C537.56 202.651 537.58 202.751 537.619 202.845C537.657 202.938 537.714 203.023 537.786 203.095C537.857 203.166 537.942 203.223 538.035 203.261C538.129 203.3 538.229 203.32 538.33 203.32H594.11C598.139 203.32 602.002 201.698 604.851 198.809C607.7 195.921 609.3 192.004 609.3 187.92V133.34C609.3 129.256 607.7 125.339 604.851 122.451C602.002 119.563 598.139 117.94 594.11 117.94H538.33C538.229 117.94 538.129 117.96 538.035 117.999C537.942 118.037 537.857 118.094 537.786 118.166C537.714 118.237 537.657 118.322 537.619 118.415C537.58 118.509 537.56 118.609 537.56 118.71Z" fill="#2163D1"/>
<path d="M360.87 263.71L392.86 263.84C392.963 263.84 393.063 263.799 393.136 263.726C393.209 263.653 393.25 263.553 393.25 263.45V239.97C393.25 239.868 393.29 239.77 393.361 239.698C393.432 239.625 393.528 239.583 393.63 239.58L403.35 239.3C403.402 239.299 403.454 239.308 403.502 239.327C403.551 239.346 403.595 239.374 403.632 239.411C403.67 239.447 403.699 239.49 403.719 239.538C403.74 239.586 403.75 239.638 403.75 239.69V302.11C403.75 302.213 403.709 302.313 403.636 302.386C403.563 302.459 403.463 302.5 403.36 302.5H393.64C393.537 302.5 393.437 302.459 393.364 302.386C393.291 302.313 393.25 302.213 393.25 302.11V275.64C393.25 275.537 393.209 275.437 393.136 275.364C393.063 275.291 392.963 275.25 392.86 275.25H360.89C360.787 275.25 360.687 275.291 360.614 275.364C360.541 275.437 360.5 275.537 360.5 275.64V302.11C360.5 302.213 360.459 302.313 360.386 302.386C360.313 302.459 360.213 302.5 360.11 302.5H350.39C350.287 302.5 350.187 302.459 350.114 302.386C350.041 302.313 350 302.213 350 302.11V239.89C350 239.787 350.041 239.687 350.114 239.614C350.187 239.541 350.287 239.5 350.39 239.5H360.12C360.223 239.5 360.323 239.541 360.396 239.614C360.469 239.687 360.51 239.787 360.51 239.89L360.48 263.32C360.48 263.423 360.521 263.523 360.594 263.596C360.667 263.669 360.767 263.71 360.87 263.71Z" fill="#2163D1"/>
<path d="M504.08 282.5L503.97 240.02C503.963 239.673 504.133 239.5 504.48 239.5H512.75C513.083 239.5 513.25 239.667 513.25 240V301.77C513.25 302.143 513.067 302.35 512.7 302.39C510.46 302.66 506.45 303.04 504.97 301.27C494.67 288.997 484.347 276.743 474 264.51C472.547 262.797 471.237 261.067 470.07 259.32C470.039 259.269 469.992 259.23 469.936 259.209C469.88 259.188 469.819 259.185 469.762 259.203C469.705 259.22 469.655 259.255 469.621 259.304C469.586 259.352 469.568 259.41 469.57 259.47L469.82 301.99C469.821 302.063 469.808 302.135 469.78 302.202C469.753 302.269 469.711 302.33 469.659 302.382C469.607 302.433 469.545 302.474 469.476 302.501C469.407 302.528 469.334 302.541 469.26 302.54L460.86 302.48C460.453 302.48 460.25 302.273 460.25 301.86V240.21C460.25 239.823 460.437 239.587 460.81 239.5C463.92 238.77 466.74 238.74 469.05 241.38C480.903 254.913 492.54 268.633 503.96 282.54C504.04 282.633 504.08 282.62 504.08 282.5Z" fill="#2163D1"/>
<path d="M543.26 289.01L538.25 302.24C538.221 302.317 538.169 302.384 538.101 302.43C538.033 302.477 537.952 302.501 537.87 302.5L528.35 302.49C528.285 302.49 528.22 302.474 528.162 302.443C528.105 302.412 528.055 302.368 528.019 302.313C527.982 302.259 527.96 302.197 527.953 302.131C527.946 302.066 527.955 302.001 527.98 301.94L553.19 239.52C553.22 239.445 553.273 239.38 553.341 239.336C553.409 239.291 553.489 239.268 553.57 239.27L563.17 239.59C563.248 239.592 563.323 239.617 563.387 239.661C563.451 239.706 563.501 239.768 563.53 239.84L588.93 301.92C588.955 301.981 588.964 302.046 588.957 302.112C588.95 302.177 588.928 302.239 588.891 302.293C588.855 302.348 588.805 302.392 588.748 302.423C588.69 302.454 588.625 302.47 588.56 302.47L577.77 302.54C577.69 302.54 577.613 302.516 577.547 302.471C577.481 302.427 577.43 302.364 577.4 302.29L572.16 289C572.13 288.926 572.079 288.863 572.013 288.819C571.947 288.774 571.87 288.75 571.79 288.75H543.64C543.558 288.749 543.477 288.773 543.409 288.82C543.341 288.866 543.289 288.933 543.26 289.01ZM548.2 276.73C548.179 276.784 548.171 276.843 548.178 276.9C548.184 276.958 548.205 277.013 548.237 277.061C548.27 277.109 548.313 277.149 548.364 277.177C548.415 277.204 548.472 277.219 548.53 277.22L567.07 277.28C567.129 277.281 567.187 277.267 567.239 277.24C567.292 277.213 567.337 277.174 567.37 277.125C567.404 277.077 567.425 277.021 567.432 276.963C567.439 276.904 567.431 276.845 567.41 276.79L558.22 252.51C558.194 252.443 558.147 252.385 558.088 252.344C558.028 252.304 557.957 252.282 557.885 252.282C557.813 252.282 557.742 252.304 557.682 252.344C557.623 252.385 557.576 252.443 557.55 252.51L548.2 276.73Z" fill="#2163D1"/>
<path d="M289.99 290.54L317.26 290.48C317.587 290.48 317.75 290.317 317.75 289.99V277.69C317.75 277.31 317.933 277.173 318.3 277.28L327.64 279.89C327.913 279.97 328.06 280.147 328.08 280.42C328.69 288.78 329.96 302.28 318.82 302.42C314.2 302.473 304.587 302.483 289.98 302.45C282.987 302.437 279.41 298.93 279.25 291.93C279.05 283.557 279.117 269.563 279.45 249.95C279.6 240.93 284.24 239.48 292.46 239.49C301.327 239.503 310.167 239.547 318.98 239.62C329.4 239.71 328.77 251.89 328.04 259.91C328.007 260.25 327.827 260.453 327.5 260.52L318.25 262.48C318.179 262.495 318.106 262.494 318.035 262.477C317.965 262.46 317.9 262.427 317.844 262.38C317.788 262.334 317.743 262.276 317.713 262.21C317.683 262.144 317.668 262.072 317.67 262L318 251.26C318.003 251.194 317.992 251.128 317.969 251.066C317.945 251.005 317.91 250.948 317.864 250.901C317.818 250.853 317.763 250.815 317.702 250.789C317.641 250.763 317.576 250.75 317.51 250.75H290C289.667 250.75 289.5 250.917 289.5 251.25V290.05C289.5 290.377 289.663 290.54 289.99 290.54Z" fill="#2163D1"/>
<path d="M436.81 239.5H427.21C426.967 239.5 426.77 239.697 426.77 239.94V302.06C426.77 302.303 426.967 302.5 427.21 302.5H436.81C437.053 302.5 437.25 302.303 437.25 302.06V239.94C437.25 239.697 437.053 239.5 436.81 239.5Z" fill="#2163D1"/>
<path d="M179.77 264.69L173.51 264.71C175.563 263.863 177.65 263.857 179.77 264.69Z" fill="#DEBE04"/>
<path d="M173.51 264.71L179.77 264.69C201.64 267.17 199.74 299.53 176.94 299.9C155 300.25 152.7 267.77 173.51 264.71Z" fill="#FCDE02"/>
<path d="M806.37 282.29C790.117 283.783 773.88 283.87 757.66 282.55C757.287 283.05 757.35 282.95 757.85 282.25C757.937 282.132 758.051 282.036 758.183 281.97C758.315 281.904 758.461 281.87 758.61 281.87C770.58 281.89 782.47 282.02 794.45 281.72C798.39 281.613 802.363 281.803 806.37 282.29Z" fill="#DEBE04"/>
<path d="M872.97 318.99C872.237 320.07 871.907 321.217 871.98 322.43C863.46 343.557 853.477 363.177 842.03 381.29C831.47 398.01 819.07 415.36 805.13 430.77C803.44 432.64 802.07 434.84 800.44 436.58C789.267 448.6 777.507 460.013 765.16 470.82C763.673 472.12 761.503 473.82 758.65 475.92C755.53 478.22 752.67 480.75 749.49 483.01C748 484.08 747.34 485.66 745.91 486.71C727.383 500.33 707.917 512.437 687.51 523.03C685.25 524.2 682.28 525.22 679.48 526.69C667.707 532.883 654.973 538.387 641.28 543.2C549.79 575.36 444.09 573.23 354.98 534.14C320.26 518.91 288.68 500.54 259.58 475.83C246.42 464.65 234.64 453.98 222.77 441.34C222.63 438.67 220.06 437.72 218.7 436.22C217.64 435.047 216.497 434.027 215.27 433.16C202.243 417.553 193.717 406.853 189.69 401.06C173.61 377.953 159.89 353.507 148.53 327.72C148.29 326.88 148.29 326.063 148.53 325.27C148.65 324.87 148.81 324.853 149.01 325.22C150.117 327.313 151.73 328.843 153.85 329.81C154.177 329.957 154.407 330.197 154.54 330.53C156.74 335.89 158.55 340.76 161.95 345.66C179.19 370.52 198.25 392.93 223.01 413.08C254.55 438.76 285.98 457.78 323.57 475.18C330.777 478.52 341.517 482.283 355.79 486.47C383.93 495.73 409.41 500.68 438.12 503.37C447.56 504.25 457.14 503.98 466.7 503.93C473.253 503.897 479.65 503.56 485.89 502.92C501.2 501.34 513.86 499.78 528.38 496.18C528.427 496.167 529.693 495.967 532.18 495.58C534.58 495.21 536.15 493.8 538.26 493.32C548.33 491.01 559 488.01 568.32 483.46C569.03 483.11 569.7 483.41 570.23 483.19C591.4 474.2 612.74 463.42 631.55 450.15C652.47 435.383 672.193 418.153 690.72 398.46C692.293 396.793 693.367 395.26 693.94 393.86C694.06 393.58 694.27 393.397 694.57 393.31C695.357 393.097 695.837 392.59 696.01 391.79C696.077 391.483 696.22 391.22 696.44 391C701.14 386.25 705.95 381.09 709.61 375.49C710.03 374.857 710.65 374.02 711.47 372.98C725.317 355.547 736.99 335.87 746.49 313.95C748.62 309.03 750.58 303.2 752.73 297.79C754.84 292.47 756.2 287.85 757.66 282.55C773.88 283.87 790.117 283.783 806.37 282.29C827.617 281.93 848.973 281.763 870.44 281.79C875.253 281.797 880.033 282.09 884.78 282.67C884.945 282.691 885.103 282.748 885.242 282.839C885.381 282.93 885.497 283.052 885.582 283.195C885.667 283.337 885.718 283.498 885.732 283.663C885.745 283.829 885.721 283.995 885.66 284.15C884.033 288.37 882.623 292.713 881.43 297.18C880.037 302.387 877.217 309.657 872.97 318.99Z" fill="#FCDE02"/>
<path d="M75.37 300.37C80.451 300.37 84.57 296.251 84.57 291.17C84.57 286.089 80.451 281.97 75.37 281.97C70.289 281.97 66.17 286.089 66.17 291.17C66.17 296.251 70.289 300.37 75.37 300.37Z" fill="#FCDE02"/>
<path d="M355.79 486.47C341.517 482.283 330.777 478.52 323.57 475.18C285.98 457.78 254.55 438.76 223.01 413.08C198.25 392.93 179.19 370.52 161.95 345.66C158.55 340.76 156.74 335.89 154.54 330.53C154.407 330.197 154.177 329.957 153.85 329.81C151.73 328.843 150.117 327.313 149.01 325.22C148.81 324.853 148.65 324.87 148.53 325.27C148.29 326.063 148.29 326.88 148.53 327.72C146.55 324.66 144.913 321.423 143.62 318.01C143.07 316.55 143.52 315.33 142.99 313.97C140.857 308.457 138.703 302.953 136.53 297.46C136.19 296.593 136.017 295.84 136.01 295.2C136.011 295.066 136.055 294.936 136.135 294.828C136.216 294.721 136.328 294.642 136.457 294.603C136.585 294.564 136.722 294.567 136.849 294.611C136.975 294.656 137.084 294.739 137.16 294.85L142.56 303.19C142.713 303.43 142.933 303.587 143.22 303.66C145.11 304.12 156.65 322.79 158.89 325.85C159.47 326.63 159.69 327.8 160.41 328.72C205.51 386.69 275.37 427.49 348.79 435.09C366.58 436.93 390.89 437.96 412.44 435.38C424.48 433.94 434.61 432.28 442.83 430.4C519.58 412.89 584.4 365.17 624.34 297.83C625.11 296.53 627.5 290.71 628.66 290.52C628.754 290.506 628.85 290.515 628.94 290.547C629.029 290.578 629.11 290.632 629.174 290.702C629.238 290.772 629.284 290.857 629.308 290.949C629.332 291.041 629.332 291.138 629.31 291.23C625.41 306.47 620.197 321.157 613.67 335.29C613.103 336.517 612.507 337.733 611.88 338.94C605.82 350.56 599.45 362.08 592 372.62C582.573 385.947 572.19 398.487 560.85 410.24C558.817 412.347 556.09 414.843 552.67 417.73C548.37 421.36 544.63 425.98 539.47 428.47C537.85 429.257 536.67 430.437 535.93 432.01C535.79 432.317 535.577 432.56 535.29 432.74C531.117 435.473 526.97 438.243 522.85 441.05C487.95 464.8 446.43 480.22 404 484.05C393.99 484.96 381.78 484.9 370.69 485.14C366.21 485.24 360.633 485.047 353.96 484.56C353.883 484.552 353.805 484.57 353.74 484.612C353.675 484.654 353.626 484.717 353.602 484.791C353.577 484.864 353.579 484.944 353.606 485.016C353.633 485.089 353.684 485.15 353.75 485.19L355.79 486.47Z" fill="#DEBE04"/>
<path d="M872.97 318.99C873.13 320.117 872.8 321.263 871.98 322.43C871.907 321.217 872.237 320.07 872.97 318.99Z" fill="#DEBE04"/>
<path d="M106.23 418.03C121.55 418.03 133.97 405.61 133.97 390.29C133.97 374.97 121.55 362.55 106.23 362.55C90.9096 362.55 78.49 374.97 78.49 390.29C78.49 405.61 90.9096 418.03 106.23 418.03Z" fill="#DEBE04"/>
<path d="M215.27 433.16C216.497 434.027 217.64 435.047 218.7 436.22C220.06 437.72 222.63 438.67 222.77 441.34C219.757 439.153 217.257 436.427 215.27 433.16Z" fill="#DEBE04"/>
</svg>
