<svg width="886" height="566" viewBox="0 0 886 566" fill="none" xmlns="http://www.w3.org/2000/svg">
<path d="M588.95 9.56461C591.52 9.4344 593.509 7.45085 593.391 5.13423C593.274 2.8176 591.095 1.04516 588.525 1.17537C585.955 1.30558 583.966 3.28913 584.083 5.60575C584.201 7.92238 586.38 9.69482 588.95 9.56461Z" fill="#DEBE04"/>
<path d="M366.217 47.29L374.467 47.09C374.907 47.0833 375.127 46.8567 375.127 46.41V9.13C375.127 8.89661 375.22 8.67278 375.385 8.50775C375.55 8.34272 375.774 8.25 376.007 8.25H387.877C388.01 8.25 388.137 8.30269 388.231 8.39645C388.325 8.49022 388.377 8.61739 388.377 8.75L388.367 17.41C388.369 17.548 388.332 17.6836 388.262 17.8025C388.192 17.9213 388.091 18.0189 387.97 18.0847C387.848 18.1505 387.712 18.182 387.574 18.1759C387.436 18.1698 387.302 18.1262 387.187 18.05C386.574 17.6433 385.974 17.5933 385.387 17.9C385.24 17.9754 385.117 18.0909 385.03 18.2338C384.944 18.3767 384.898 18.5414 384.897 18.71C384.897 31.1833 384.781 43.6567 384.547 56.13C384.541 56.5433 384.331 56.75 383.917 56.75H284.807C284.421 56.75 284.217 56.9433 284.197 57.33L283.847 63.2C283.827 63.54 283.651 63.7233 283.317 63.75C269.707 64.81 252.147 66.14 250.977 48.53C250.504 41.4367 250.431 34.3467 250.757 27.26C250.771 26.9267 250.944 26.76 251.277 26.76L259.587 26.75C259.756 26.7498 259.919 26.8145 260.04 26.9302C260.161 27.0459 260.232 27.2037 260.237 27.37C260.397 32.73 260.414 38.1067 260.287 43.5C260.057 53.58 264.817 55.19 274.087 54.38C274.434 54.3533 274.604 54.1667 274.597 53.82L274.297 27.45C274.296 27.3577 274.313 27.2661 274.348 27.1805C274.383 27.095 274.434 27.0173 274.499 26.952C274.565 26.8868 274.642 26.8352 274.728 26.8005C274.813 26.7658 274.905 26.7487 274.997 26.75L283.557 26.77C283.714 26.77 283.864 26.8322 283.975 26.9428C284.085 27.0535 284.147 27.2035 284.147 27.36L284.097 46.57C284.097 46.6667 284.116 46.7625 284.153 46.8517C284.19 46.9409 284.244 47.0218 284.312 47.0898C284.38 47.1577 284.46 47.2112 284.549 47.2473C284.637 47.2834 284.732 47.3013 284.827 47.3L299.317 47.13C299.467 47.1274 299.609 47.0662 299.714 46.9596C299.819 46.853 299.877 46.7095 299.877 46.56V23.39C299.877 22.99 300.081 22.7867 300.487 22.78L308.877 22.68C309.211 22.68 309.377 22.8467 309.377 23.18V46.53C309.377 47.05 309.637 47.3 310.157 47.28L322.667 46.92C322.974 46.9133 323.127 46.76 323.127 46.46V23.33C323.127 22.8767 323.351 22.66 323.797 22.68L332.127 22.98C332.627 22.9933 332.877 23.25 332.877 23.75V24.99C332.877 25.3367 333.051 25.5067 333.397 25.5C337.151 25.46 342.991 25.51 350.917 25.65C364.297 25.89 366.227 35.78 365.707 46.76C365.694 47.12 365.864 47.2967 366.217 47.29ZM353.777 36.07C351.367 34.37 337.287 35.22 333.477 35.17C333.403 35.1687 333.329 35.1822 333.26 35.2097C333.191 35.2373 333.128 35.2783 333.075 35.3304C333.022 35.3826 332.98 35.4448 332.951 35.5134C332.922 35.582 332.907 35.6556 332.907 35.73L332.817 46.47C332.817 46.6106 332.873 46.7454 332.973 46.8448C333.072 46.9442 333.207 47 333.347 47H355.597C355.904 47 356.064 46.85 356.077 46.55C356.257 43.33 356.747 38.17 353.777 36.07Z" fill="#DEBE04"/>
<path d="M405.717 8.26001H397.557C397.187 8.26001 396.887 8.55996 396.887 8.92999V56.07C396.887 56.44 397.187 56.74 397.557 56.74H405.717C406.087 56.74 406.387 56.44 406.387 56.07V8.92999C406.387 8.55996 406.087 8.26001 405.717 8.26001Z" fill="#DEBE04"/>
<path d="M646.377 46.56V23.21C646.377 23.1395 646.391 23.0698 646.419 23.0049C646.446 22.9399 646.486 22.881 646.536 22.8317C646.586 22.7823 646.646 22.7435 646.711 22.7174C646.777 22.6914 646.847 22.6787 646.917 22.68L654.997 22.74C655.232 22.7426 655.455 22.8365 655.62 23.0013C655.785 23.166 655.877 23.3883 655.877 23.62V46.4C655.877 46.5726 655.945 46.7386 656.066 46.8635C656.187 46.9883 656.352 47.0623 656.527 47.07L664.007 47.32C664.554 47.34 664.824 47.0733 664.817 46.52C664.357 18.09 702.207 20.57 701.167 44.77C700.477 60.75 681.947 67.32 670.197 57.12C669.917 56.8733 669.587 56.75 669.207 56.75H625.617C625.416 56.75 625.222 56.6699 625.08 56.5274C624.937 56.3849 624.857 56.1916 624.857 55.99L624.887 8.87C624.887 8.70556 624.953 8.54785 625.069 8.43158C625.185 8.31531 625.343 8.25 625.507 8.25H633.757C634.171 8.25 634.377 8.46 634.377 8.88V46.78C634.377 46.8491 634.391 46.9176 634.418 46.9813C634.445 47.0451 634.484 47.1029 634.533 47.1513C634.582 47.1997 634.641 47.2378 634.705 47.2633C634.77 47.2889 634.838 47.3013 634.907 47.3L645.827 47.12C646.194 47.1133 646.377 46.9267 646.377 46.56ZM691.577 43.97C691.577 41.6971 690.674 39.5173 689.067 37.9101C687.46 36.3029 685.28 35.4 683.007 35.4C681.882 35.4 680.767 35.6217 679.728 36.0523C678.688 36.483 677.743 37.1143 676.947 37.9101C676.152 38.7059 675.52 39.6506 675.09 40.6904C674.659 41.7302 674.437 42.8446 674.437 43.97C674.437 45.0954 674.659 46.2098 675.09 47.2496C675.52 48.2894 676.152 49.2341 676.947 50.0299C677.743 50.8257 678.688 51.457 679.728 51.8876C680.767 52.3183 681.882 52.54 683.007 52.54C685.28 52.54 687.46 51.6371 689.067 50.0299C690.674 48.4227 691.577 46.2429 691.577 43.97Z" fill="#DEBE04"/>
<path d="M767.627 47H775.867C776.194 47 776.357 46.8367 776.357 46.51L776.417 8.89998C776.417 8.76644 776.47 8.63823 776.563 8.54287C776.657 8.44751 776.784 8.39262 776.917 8.39L785.357 8.20998C785.46 8.20728 785.561 8.22529 785.657 8.2629C785.752 8.30051 785.838 8.35694 785.911 8.42885C785.984 8.50076 786.042 8.58665 786.081 8.68136C786.119 8.77606 786.139 8.87765 786.137 8.98L786.097 46.77C786.097 46.831 786.121 46.8895 786.165 46.9326C786.208 46.9758 786.266 47 786.327 47H795.877C796.211 47 796.377 46.8333 796.377 46.5L796.447 9.20998C796.45 8.95446 796.553 8.71029 796.735 8.53054C796.916 8.35079 797.162 8.24998 797.417 8.24999H805.627C805.76 8.24999 805.887 8.30268 805.981 8.39644C806.075 8.49021 806.127 8.61738 806.127 8.74999V25.01C806.127 25.3767 806.311 25.5566 806.677 25.55C816.937 25.39 833.657 22.67 837.957 34.51C839.947 39.97 839.137 49.38 839.127 56.02C839.125 56.2118 839.047 56.395 838.91 56.5297C838.773 56.6645 838.589 56.74 838.397 56.74C805.864 56.7533 773.274 56.7567 740.627 56.75C721.517 56.75 721.407 42.58 722.217 28.13C722.237 27.71 722.461 27.5 722.887 27.5H730.877C731.052 27.4995 731.22 27.5653 731.348 27.6841C731.476 27.8029 731.555 27.9658 731.567 28.14C731.967 33.75 729.787 45.6 737.437 46.71C743.131 47.53 749.721 47.5933 757.207 46.9C757.487 46.8733 757.627 46.7233 757.627 46.45V23.33C757.627 23.1523 757.698 22.9819 757.823 22.8562C757.949 22.7306 758.12 22.66 758.297 22.66L766.487 22.72C766.658 22.7226 766.821 22.7912 766.94 22.9109C767.06 23.0307 767.127 23.192 767.127 23.36V46.5C767.127 46.8333 767.294 47 767.627 47ZM806.607 46.97L828.987 47.19C829.361 47.19 829.561 47.0033 829.587 46.63C829.887 42.33 830.087 35.66 824.047 35.28C818.234 34.92 812.404 34.8533 806.557 35.08C806.271 35.0933 806.127 35.2433 806.127 35.53V46.48C806.127 46.8 806.287 46.9633 806.607 46.97Z" fill="#DEBE04"/>
<path d="M582.705 18.8096C585.549 18.7749 587.829 16.6336 587.797 14.027C587.765 11.4205 585.434 9.33556 582.59 9.37031C579.746 9.40506 577.466 11.5463 577.498 14.1529C577.53 16.7595 579.861 18.8444 582.705 18.8096Z" fill="#DEBE04"/>
<path d="M594.762 18.8086C597.611 18.8782 599.972 16.8176 600.036 14.2061C600.1 11.5945 597.842 9.42104 594.993 9.35141C592.144 9.28179 589.783 11.3424 589.719 13.9539C589.655 16.5655 591.913 18.739 594.762 18.8086Z" fill="#DEBE04"/>
<path d="M447.042 23.0999C450.08 23.0787 452.527 20.814 452.507 18.0416C452.488 15.2692 450.01 13.0389 446.972 13.0601C443.935 13.0813 441.488 15.346 441.507 18.1184C441.527 20.8908 444.005 23.1211 447.042 23.0999Z" fill="#DEBE04"/>
<path d="M267.921 23.1398C270.964 23.1133 273.411 20.8353 273.387 18.0519C273.363 15.2685 270.876 13.0336 267.833 13.0602C264.79 13.0867 262.343 15.3647 262.367 18.1481C262.392 20.9315 264.878 23.1664 267.921 23.1398Z" fill="#DEBE04"/>
<path d="M44.4673 64.48C36.834 50.5333 31.084 39.7633 27.2173 32.17C25.3173 28.4367 23.3406 25.2266 21.2873 22.54C20.7873 21.8866 20.6606 21.9533 20.9073 22.74L36.4073 71.5L82.6273 216.69C82.7053 216.941 82.7008 217.211 82.6144 217.459C82.528 217.707 82.3643 217.921 82.1473 218.07L1.1773 272.27C0.330631 272.837 -0.0593674 272.613 0.0072993 271.6C4.00063 215.593 8.00063 159.87 12.0073 104.43C12.934 91.63 13.7573 81.9866 14.4773 75.5C14.7573 73.05 14.1673 70.88 14.4573 68.51C16.7173 50.34 16.4373 33.66 18.7073 16.29C18.7606 15.8633 18.954 15.79 19.2873 16.07L215.777 180.86C216.077 181.12 216.034 181.293 215.647 181.38C183.281 188.647 150.911 195.603 118.537 202.25C118.511 202.256 118.483 202.253 118.46 202.242C118.436 202.231 118.418 202.213 118.407 202.19L44.4673 64.48Z" fill="white"/>
<path d="M572.367 47.07C577.537 47.87 583.787 47.28 583.847 40.65C583.894 35.8767 583.901 31.1633 583.867 26.51C583.866 26.3778 583.891 26.2467 583.941 26.1242C583.99 26.0018 584.064 25.8903 584.157 25.7964C584.25 25.7025 584.36 25.6279 584.482 25.5771C584.604 25.5262 584.735 25.5 584.867 25.5H593.087C593.421 25.5 593.587 25.6667 593.587 26C593.661 30.28 593.671 34.5333 593.617 38.76C593.547 44.5 595.087 48.53 601.647 47.46C605.477 46.84 606.127 44.21 606.227 40.56C606.421 33.42 606.454 26.2667 606.327 19.1C606.321 18.7 606.521 18.5 606.927 18.5H615.077C615.477 18.5 615.684 18.7 615.697 19.1C615.997 25.8867 615.961 33.8467 615.587 42.98C614.977 58.07 598.577 61.17 588.497 52.83C588.231 52.61 587.964 52.61 587.697 52.83C584.631 55.3567 581.171 56.6467 577.317 56.7C572.604 56.76 562.337 56.7733 546.517 56.74C546.171 56.74 545.981 56.9133 545.947 57.26C545.007 66.9933 539.534 70.89 529.527 68.95C529.355 68.919 529.199 68.8311 529.083 68.7006C528.967 68.57 528.898 68.4044 528.887 68.23L528.297 59.8C528.29 59.7053 528.307 59.6103 528.346 59.5236C528.384 59.4369 528.444 59.3613 528.52 59.3037C528.595 59.2461 528.684 59.2082 528.778 59.1936C528.872 59.179 528.968 59.1881 529.057 59.22C531.071 59.9333 533.121 59.9733 535.207 59.34C535.352 59.2959 535.486 59.2224 535.599 59.1241C535.713 59.0259 535.804 58.9053 535.867 58.77C536.181 58.0767 536.337 57.3 536.337 56.44C536.344 45.3533 536.364 34.2633 536.397 23.17C536.397 23.1088 536.41 23.0481 536.433 22.9916C536.457 22.9352 536.492 22.884 536.536 22.8412C536.579 22.7983 536.631 22.7646 536.688 22.7421C536.745 22.7196 536.806 22.7087 536.867 22.71L545.517 22.77C545.682 22.77 545.839 22.8353 545.956 22.9516C546.072 23.0679 546.137 23.2256 546.137 23.39L546.107 46.64C546.107 46.7275 546.125 46.8142 546.158 46.8949C546.192 46.9756 546.242 47.0488 546.304 47.1103C546.366 47.1717 546.44 47.2201 546.522 47.2527C546.603 47.2852 546.69 47.3013 546.777 47.3L561.837 47.08C561.981 47.0774 562.119 47.0193 562.22 46.9183C562.321 46.8173 562.377 46.6815 562.377 46.54V26.13C562.377 25.71 562.584 25.5 562.997 25.5H571.127C571.326 25.5 571.517 25.579 571.658 25.7197C571.798 25.8603 571.877 26.0511 571.877 26.25V46.5C571.877 46.8267 572.041 47.0167 572.367 47.07Z" fill="#DEBE04"/>
<path d="M44.4674 64.48L42.9774 66.8C39.3907 59.4866 35.6341 52.26 31.7074 45.12C31.3807 44.5266 30.9574 44.35 30.4374 44.59C30.2845 44.6583 30.1628 44.7814 30.0961 44.935C30.0295 45.0886 30.0228 45.2617 30.0774 45.42L39.0374 70.98C38.2441 71.7866 37.3674 71.96 36.4074 71.5L20.9074 22.74C20.6607 21.9533 20.7874 21.8866 21.2874 22.54C23.3407 25.2266 25.3174 28.4366 27.2174 32.17C31.0841 39.7633 36.8341 50.5333 44.4674 64.48Z" fill="#DEBE04"/>
<path d="M463.377 57.25V63.22C463.377 63.54 463.214 63.7133 462.887 63.74C452.867 64.53 437.497 65.58 432.127 56.59C428.457 50.43 429.667 34.49 430.017 27.33C430.025 27.1735 430.093 27.0259 430.206 26.9179C430.32 26.81 430.471 26.7498 430.627 26.75H438.617C438.725 26.75 438.832 26.7716 438.932 26.8135C439.032 26.8555 439.122 26.9169 439.197 26.9943C439.273 27.0716 439.332 27.1633 439.372 27.2639C439.411 27.3645 439.43 27.4719 439.427 27.58C439.261 34.26 439.347 40.6967 439.687 46.89C440.127 55.02 447.247 54.64 453.167 54.22C453.474 54.2 453.627 54.0367 453.627 53.73V27.48C453.627 27.3785 453.648 27.278 453.687 27.1845C453.726 27.0909 453.784 27.0062 453.857 26.9354C453.93 26.8646 454.016 26.809 454.11 26.772C454.205 26.735 454.306 26.7173 454.407 26.72L462.897 26.89C463.184 26.8967 463.327 27.0467 463.327 27.34L463.097 46.62C463.096 46.6983 463.11 46.7761 463.139 46.8488C463.168 46.9216 463.212 46.9878 463.267 47.0437C463.321 47.0995 463.387 47.1439 463.459 47.1742C463.531 47.2044 463.609 47.22 463.687 47.22L471.597 47.26C472.044 47.2667 472.251 47.0467 472.217 46.6C470.807 25.1 498.327 17.45 507.077 36.89C510.397 44.24 507.787 54.16 500.917 58.82C493.467 63.88 484.307 63.21 477.527 57.09C477.29 56.8711 476.976 56.7497 476.647 56.75H463.877C463.544 56.75 463.377 56.9167 463.377 57.25ZM498.907 44C498.907 41.7297 498.005 39.5525 496.4 37.9472C494.795 36.3419 492.618 35.44 490.347 35.44C489.223 35.44 488.11 35.6614 487.072 36.0916C486.033 36.5218 485.089 37.1523 484.295 37.9472C483.5 38.742 482.869 39.6857 482.439 40.7242C482.009 41.7628 481.787 42.8759 481.787 44C481.787 45.1241 482.009 46.2372 482.439 47.2758C482.869 48.3143 483.5 49.258 484.295 50.0528C485.089 50.8477 486.033 51.4782 487.072 51.9084C488.11 52.3386 489.223 52.56 490.347 52.56C492.618 52.56 494.795 51.6581 496.4 50.0528C498.005 48.4475 498.907 46.2703 498.907 44Z" fill="#DEBE04"/>
<path d="M42.9773 66.8L115.837 218.24C116.011 218.593 116.281 218.7 116.647 218.56L131.087 212.97C131.527 212.797 131.794 212.943 131.887 213.41C132.054 214.23 131.837 214.917 131.237 215.47C131.127 215.57 131.04 215.694 130.981 215.832C130.923 215.97 130.894 216.119 130.897 216.27C130.957 218.53 129.647 220.07 129.117 221.51C127.631 225.523 126.114 229.527 124.567 233.52C123.097 237.31 123.057 242.22 121.077 245.24C119.877 247.067 119.107 248.977 118.767 250.97C118.743 251.11 118.687 251.243 118.604 251.358C118.521 251.473 118.412 251.568 118.287 251.634C118.161 251.701 118.022 251.738 117.88 251.742C117.738 251.747 117.597 251.719 117.467 251.66L80.8473 234.89C80.7735 234.856 80.7107 234.801 80.6667 234.733C80.6226 234.664 80.5991 234.585 80.5991 234.504C80.5991 234.423 80.6226 234.345 80.6667 234.279C80.7107 234.212 80.7735 234.161 80.8473 234.13L95.7373 227.6C95.9978 227.485 96.2048 227.276 96.3162 227.014C96.4277 226.752 96.4352 226.457 96.3373 226.19L39.0373 70.98L30.0773 45.42C30.0228 45.2617 30.0295 45.0887 30.0961 44.9351C30.1627 44.7814 30.2845 44.6583 30.4373 44.59C30.9573 44.35 31.3807 44.5267 31.7073 45.12C35.634 52.26 39.3907 59.4867 42.9773 66.8Z" fill="#FCDE02"/>
<path d="M651.23 69.0897C654.273 69.0578 656.716 66.7667 656.687 63.9723C656.658 61.1779 654.167 58.9384 651.124 58.9703C648.081 59.0021 645.638 61.2933 645.668 64.0877C645.697 66.8821 648.187 69.1216 651.23 69.0897Z" fill="#DEBE04"/>
<path d="M747.625 69.0796C750.646 69.1165 753.123 66.8812 753.157 64.0868C753.191 61.2925 750.77 58.9973 747.749 58.9604C744.728 58.9235 742.252 61.1588 742.218 63.9532C742.184 66.7475 744.605 69.0427 747.625 69.0796Z" fill="#DEBE04"/>
<path d="M298.088 69.0787C300.959 69.0136 303.237 66.781 303.176 64.092C303.115 61.4031 300.738 59.2761 297.867 59.3413C294.996 59.4064 292.718 61.639 292.779 64.328C292.84 67.0169 295.217 69.1439 298.088 69.0787Z" fill="#DEBE04"/>
<path d="M310.555 69.0295C313.443 68.9892 315.754 66.7987 315.717 64.137C315.68 61.4752 313.308 59.3501 310.42 59.3905C307.532 59.4308 305.221 61.6213 305.258 64.283C305.295 66.9448 307.666 69.0699 310.555 69.0295Z" fill="#DEBE04"/>
<path d="M409.877 173.75V227.28C409.877 227.349 409.864 227.418 409.837 227.481C409.81 227.545 409.771 227.603 409.721 227.651C409.672 227.7 409.614 227.738 409.549 227.763C409.485 227.789 409.416 227.801 409.347 227.8L385.927 227.6C385.561 227.593 385.377 227.41 385.377 227.05V94.98C385.377 94.6042 385.525 94.2434 385.789 93.9758C386.053 93.7082 386.412 93.5552 386.787 93.55C408.047 93.2166 429.131 93.2433 450.037 93.63C465.367 93.91 477.347 99.55 485.997 112.66C491.887 121.58 492.807 136.15 489.307 146.04C485.274 157.4 477.081 165.91 464.727 171.57C464.147 171.837 464.041 172.23 464.407 172.75L502.877 227.06C502.914 227.112 502.935 227.173 502.939 227.236C502.944 227.299 502.931 227.362 502.902 227.419C502.873 227.475 502.83 227.523 502.776 227.557C502.722 227.59 502.661 227.609 502.597 227.61L474.867 227.81C474.633 227.813 474.401 227.759 474.192 227.65C473.983 227.542 473.803 227.384 473.667 227.19L436.287 174.15C436.09 173.872 435.828 173.645 435.526 173.488C435.223 173.332 434.887 173.25 434.547 173.25H410.377C410.044 173.25 409.877 173.417 409.877 173.75ZM409.827 118.5V148.26C409.827 148.411 409.887 148.556 409.994 148.663C410.101 148.77 410.246 148.83 410.397 148.83H452.017C456.21 148.83 460.232 147.209 463.197 144.322C466.162 141.436 467.827 137.522 467.827 133.44V133.32C467.827 129.238 466.162 125.324 463.197 122.438C460.232 119.551 456.21 117.93 452.017 117.93H410.397C410.246 117.93 410.101 117.99 409.994 118.097C409.887 118.204 409.827 118.349 409.827 118.5Z" fill="white"/>
<path d="M669.057 203.25H749.547C749.701 203.25 749.849 203.311 749.957 203.42C750.066 203.529 750.127 203.676 750.127 203.83V227.17C750.127 227.324 750.066 227.471 749.957 227.58C749.849 227.689 749.701 227.75 749.547 227.75H644.787C644.633 227.75 644.486 227.689 644.377 227.58C644.268 227.471 644.207 227.324 644.207 227.17L644.117 94.06C644.117 93.9061 644.178 93.7586 644.287 93.6498C644.396 93.5411 644.544 93.48 644.697 93.48L749.597 93.47C749.751 93.47 749.899 93.5311 750.007 93.6399C750.116 93.7486 750.177 93.8961 750.177 94.05L750.097 117.42C750.097 117.574 750.036 117.721 749.927 117.83C749.819 117.939 749.671 118 749.517 118H669.047C668.893 118 668.746 118.061 668.637 118.17C668.528 118.279 668.467 118.426 668.467 118.58L668.337 148.17C668.337 148.324 668.398 148.471 668.507 148.58C668.616 148.689 668.763 148.75 668.917 148.75H736.257C736.334 148.75 736.411 148.765 736.482 148.795C736.553 148.825 736.617 148.868 736.671 148.923C736.725 148.978 736.768 149.043 736.796 149.115C736.825 149.186 736.839 149.263 736.837 149.34L736.637 172.37C736.635 172.522 736.572 172.667 736.464 172.774C736.355 172.88 736.209 172.94 736.057 172.94L668.907 173.32C668.754 173.32 668.606 173.381 668.497 173.49C668.388 173.599 668.327 173.746 668.327 173.9L668.477 202.67C668.477 202.824 668.538 202.971 668.647 203.08C668.756 203.189 668.903 203.25 669.057 203.25Z" fill="white"/>
<path d="M786.127 173.79L786.037 226.9C786.037 227.015 786.015 227.129 785.971 227.235C785.927 227.341 785.863 227.438 785.782 227.519C785.701 227.6 785.605 227.664 785.499 227.707C785.394 227.75 785.281 227.771 785.167 227.77L762.197 227.69C761.784 227.69 761.574 227.483 761.567 227.07L761.397 94.88C761.397 94.0467 761.811 93.6233 762.637 93.61C783.744 93.1767 805.071 93.18 826.617 93.62C831.737 93.7267 835.861 94.2534 838.987 95.2C870.657 104.83 877.227 143.4 852.817 164.36C849.327 167.36 844.777 169.51 840.457 171.58C840.097 171.753 840.031 172.003 840.257 172.33L878.827 226.82C878.89 226.909 878.928 227.013 878.936 227.121C878.944 227.229 878.923 227.338 878.875 227.434C878.826 227.53 878.752 227.61 878.661 227.666C878.569 227.722 878.464 227.751 878.357 227.75H851.817C851.363 227.75 850.915 227.641 850.511 227.433C850.107 227.224 849.76 226.921 849.497 226.55L812.297 174C812.1 173.716 811.837 173.485 811.53 173.327C811.223 173.168 810.883 173.087 810.537 173.09L786.597 173.32C786.284 173.32 786.127 173.477 786.127 173.79ZM785.987 118.45V148.29C785.987 148.42 786.039 148.545 786.131 148.636C786.223 148.728 786.347 148.78 786.477 148.78H828.357C832.508 148.78 836.489 147.158 839.424 144.269C842.358 141.381 844.007 137.464 844.007 133.38V133.36C844.007 129.276 842.358 125.359 839.424 122.471C836.489 119.582 832.508 117.96 828.357 117.96H786.477C786.347 117.96 786.223 118.012 786.131 118.104C786.039 118.195 785.987 118.32 785.987 118.45Z" fill="white"/>
<path d="M296.377 227.71C277.727 227.58 261.957 216.73 256.927 198.6C255.967 195.133 255.424 189.643 255.297 182.13C255.084 169.243 255.047 156.353 255.187 143.46C255.294 134.333 255.864 127.707 256.897 123.58C261.797 104.06 277.647 93.88 297.637 93.66C306.337 93.5666 319.084 93.6333 335.877 93.86C356.157 94.13 374.007 108.74 374.537 129.82C374.737 137.747 374.761 153.97 374.607 178.49C374.541 189.323 374.254 195.97 373.747 198.43C370.957 211.98 359.847 222.17 346.707 226.02C343.481 226.967 339.181 227.48 333.807 227.56C321.321 227.747 308.844 227.797 296.377 227.71ZM351.127 132.34C351.127 128.537 349.616 124.889 346.927 122.2C344.238 119.511 340.591 118 336.787 118H294.067C290.264 118 286.617 119.511 283.927 122.2C281.238 124.889 279.727 128.537 279.727 132.34V188.88C279.727 192.683 281.238 196.331 283.927 199.02C286.617 201.709 290.264 203.22 294.067 203.22H336.787C340.591 203.22 344.238 201.709 346.927 199.02C349.616 196.331 351.127 192.683 351.127 188.88V132.34Z" fill="white"/>
<path d="M591.197 93.66C616.477 93.87 633.487 110.52 633.427 136.07C633.407 143.87 633.391 151.677 633.377 159.49C633.337 184.87 638.377 218.21 605.497 226.32C601.624 227.273 594.994 227.75 585.607 227.75C561.941 227.763 538.264 227.76 514.577 227.74C514.277 227.74 514.127 227.59 514.127 227.29V95.03C514.127 94.6402 514.281 94.2663 514.555 93.9906C514.829 93.7149 515.2 93.56 515.587 93.56C540.694 93.4067 565.897 93.44 591.197 93.66ZM537.437 118.71V202.55C537.437 202.651 537.457 202.751 537.496 202.845C537.535 202.938 537.591 203.023 537.663 203.095C537.734 203.166 537.819 203.223 537.913 203.261C538.006 203.3 538.106 203.32 538.207 203.32H593.987C598.016 203.32 601.88 201.698 604.728 198.809C607.577 195.921 609.177 192.004 609.177 187.92V133.34C609.177 129.256 607.577 125.339 604.728 122.451C601.88 119.563 598.016 117.94 593.987 117.94H538.207C538.106 117.94 538.006 117.96 537.913 117.999C537.819 118.037 537.734 118.094 537.663 118.166C537.591 118.237 537.535 118.322 537.496 118.415C537.457 118.509 537.437 118.609 537.437 118.71Z" fill="white"/>
<path d="M360.747 263.71L392.737 263.84C392.841 263.84 392.94 263.799 393.013 263.726C393.086 263.653 393.127 263.553 393.127 263.45V239.97C393.127 239.868 393.167 239.77 393.238 239.698C393.309 239.625 393.406 239.583 393.507 239.58L403.227 239.3C403.279 239.299 403.331 239.308 403.38 239.327C403.428 239.346 403.472 239.374 403.51 239.411C403.547 239.447 403.576 239.49 403.597 239.538C403.617 239.586 403.627 239.638 403.627 239.69V302.11C403.627 302.213 403.586 302.313 403.513 302.386C403.44 302.459 403.341 302.5 403.237 302.5H393.517C393.414 302.5 393.315 302.459 393.242 302.386C393.168 302.313 393.127 302.213 393.127 302.11V275.64C393.127 275.537 393.086 275.437 393.013 275.364C392.94 275.291 392.841 275.25 392.737 275.25H360.767C360.664 275.25 360.565 275.291 360.492 275.364C360.418 275.437 360.377 275.537 360.377 275.64V302.11C360.377 302.213 360.336 302.313 360.263 302.386C360.19 302.459 360.091 302.5 359.987 302.5H350.267C350.164 302.5 350.065 302.459 349.992 302.386C349.918 302.313 349.877 302.213 349.877 302.11V239.89C349.877 239.787 349.918 239.687 349.992 239.614C350.065 239.541 350.164 239.5 350.267 239.5H359.997C360.101 239.5 360.2 239.541 360.273 239.614C360.346 239.687 360.387 239.787 360.387 239.89L360.357 263.32C360.357 263.423 360.398 263.523 360.472 263.596C360.545 263.669 360.644 263.71 360.747 263.71Z" fill="white"/>
<path d="M503.957 282.5L503.847 240.02C503.841 239.673 504.011 239.5 504.357 239.5H512.627C512.961 239.5 513.127 239.667 513.127 240V301.77C513.127 302.143 512.944 302.35 512.577 302.39C510.337 302.66 506.327 303.04 504.847 301.27C494.547 288.997 484.224 276.743 473.877 264.51C472.424 262.797 471.114 261.067 469.947 259.32C469.916 259.269 469.869 259.23 469.813 259.209C469.758 259.188 469.697 259.185 469.64 259.203C469.583 259.22 469.533 259.255 469.498 259.304C469.463 259.352 469.445 259.41 469.447 259.47L469.697 301.99C469.699 302.063 469.685 302.135 469.658 302.202C469.63 302.269 469.589 302.33 469.536 302.382C469.484 302.433 469.422 302.474 469.353 302.501C469.285 302.528 469.211 302.541 469.137 302.54L460.737 302.48C460.331 302.48 460.127 302.273 460.127 301.86V240.21C460.127 239.823 460.314 239.587 460.687 239.5C463.797 238.77 466.617 238.74 468.927 241.38C480.781 254.913 492.417 268.633 503.837 282.54C503.917 282.633 503.957 282.62 503.957 282.5Z" fill="white"/>
<path d="M543.137 289.01L538.127 302.24C538.099 302.317 538.046 302.384 537.978 302.43C537.91 302.477 537.83 302.501 537.747 302.5L528.227 302.49C528.162 302.49 528.098 302.474 528.04 302.443C527.982 302.412 527.933 302.368 527.896 302.313C527.86 302.259 527.837 302.197 527.83 302.131C527.823 302.066 527.833 302.001 527.857 301.94L553.067 239.52C553.098 239.445 553.15 239.38 553.218 239.336C553.286 239.291 553.366 239.268 553.447 239.27L563.047 239.59C563.125 239.592 563.201 239.617 563.265 239.661C563.329 239.706 563.378 239.768 563.407 239.84L588.807 301.92C588.832 301.981 588.841 302.046 588.834 302.112C588.828 302.177 588.805 302.239 588.768 302.293C588.732 302.348 588.683 302.392 588.625 302.423C588.567 302.454 588.503 302.47 588.437 302.47L577.647 302.54C577.568 302.54 577.49 302.516 577.424 302.471C577.358 302.427 577.307 302.364 577.277 302.29L572.037 289C572.007 288.926 571.956 288.863 571.89 288.819C571.825 288.774 571.747 288.75 571.667 288.75H543.517C543.435 288.749 543.354 288.773 543.286 288.82C543.218 288.866 543.166 288.933 543.137 289.01ZM548.077 276.73C548.056 276.784 548.049 276.843 548.055 276.9C548.062 276.958 548.082 277.013 548.114 277.061C548.147 277.109 548.19 277.149 548.241 277.177C548.292 277.204 548.349 277.219 548.407 277.22L566.947 277.28C567.006 277.281 567.064 277.267 567.117 277.24C567.169 277.213 567.214 277.174 567.247 277.125C567.281 277.077 567.302 277.021 567.309 276.963C567.316 276.904 567.309 276.845 567.287 276.79L558.097 252.51C558.071 252.443 558.025 252.385 557.965 252.344C557.905 252.304 557.835 252.282 557.762 252.282C557.69 252.282 557.619 252.304 557.56 252.344C557.5 252.385 557.454 252.443 557.427 252.51L548.077 276.73Z" fill="white"/>
<path d="M289.867 290.54L317.137 290.48C317.464 290.48 317.627 290.317 317.627 289.99V277.69C317.627 277.31 317.811 277.173 318.177 277.28L327.517 279.89C327.791 279.97 327.937 280.147 327.957 280.42C328.567 288.78 329.837 302.28 318.697 302.42C314.077 302.473 304.464 302.483 289.857 302.45C282.864 302.437 279.287 298.93 279.127 291.93C278.927 283.557 278.994 269.563 279.327 249.95C279.477 240.93 284.117 239.48 292.337 239.49C301.204 239.503 310.044 239.547 318.857 239.62C329.277 239.71 328.647 251.89 327.917 259.91C327.884 260.25 327.704 260.453 327.377 260.52L318.127 262.48C318.057 262.495 317.983 262.494 317.913 262.477C317.843 262.46 317.777 262.427 317.721 262.38C317.665 262.334 317.621 262.276 317.591 262.21C317.561 262.144 317.546 262.072 317.547 262L317.877 251.26C317.88 251.194 317.869 251.128 317.846 251.066C317.823 251.005 317.787 250.948 317.741 250.901C317.695 250.853 317.64 250.815 317.58 250.789C317.519 250.763 317.453 250.75 317.387 250.75H289.877C289.544 250.75 289.377 250.917 289.377 251.25V290.05C289.377 290.377 289.541 290.54 289.867 290.54Z" fill="white"/>
<path d="M436.687 239.5H427.087C426.844 239.5 426.647 239.697 426.647 239.94V302.06C426.647 302.303 426.844 302.5 427.087 302.5H436.687C436.93 302.5 437.127 302.303 437.127 302.06V239.94C437.127 239.697 436.93 239.5 436.687 239.5Z" fill="white"/>
<path d="M179.647 264.69L173.387 264.71C175.441 263.863 177.527 263.857 179.647 264.69Z" fill="#DEBE04"/>
<path d="M173.387 264.71L179.647 264.69C201.517 267.17 199.617 299.53 176.817 299.9C154.877 300.25 152.577 267.77 173.387 264.71Z" fill="#FCDE02"/>
<path d="M806.247 282.29C789.994 283.783 773.757 283.87 757.537 282.55C757.164 283.05 757.227 282.95 757.727 282.25C757.814 282.132 757.928 282.036 758.06 281.97C758.192 281.904 758.338 281.87 758.487 281.87C770.457 281.89 782.347 282.02 794.327 281.72C798.267 281.613 802.241 281.803 806.247 282.29Z" fill="#DEBE04"/>
<path d="M872.847 318.99C872.114 320.07 871.784 321.217 871.857 322.43C863.337 343.557 853.354 363.177 841.907 381.29C831.347 398.01 818.947 415.36 805.007 430.77C803.317 432.64 801.947 434.84 800.317 436.58C789.144 448.6 777.384 460.013 765.037 470.82C763.551 472.12 761.381 473.82 758.527 475.92C755.407 478.22 752.547 480.75 749.367 483.01C747.877 484.08 747.217 485.66 745.787 486.71C727.261 500.33 707.794 512.437 687.387 523.03C685.127 524.2 682.157 525.22 679.357 526.69C667.584 532.883 654.851 538.387 641.157 543.2C549.667 575.36 443.967 573.23 354.857 534.14C320.137 518.91 288.557 500.54 259.457 475.83C246.297 464.65 234.517 453.98 222.647 441.34C222.507 438.67 219.937 437.72 218.577 436.22C217.517 435.047 216.374 434.027 215.147 433.16C202.121 417.553 193.594 406.853 189.567 401.06C173.487 377.953 159.767 353.507 148.407 327.72C148.167 326.88 148.167 326.063 148.407 325.27C148.527 324.87 148.687 324.853 148.887 325.22C149.994 327.313 151.607 328.843 153.727 329.81C154.054 329.957 154.284 330.197 154.417 330.53C156.617 335.89 158.427 340.76 161.827 345.66C179.067 370.52 198.127 392.93 222.887 413.08C254.427 438.76 285.857 457.78 323.447 475.18C330.654 478.52 341.394 482.283 355.667 486.47C383.807 495.73 409.287 500.68 437.997 503.37C447.437 504.25 457.017 503.98 466.577 503.93C473.131 503.897 479.527 503.56 485.767 502.92C501.077 501.34 513.737 499.78 528.257 496.18C528.304 496.167 529.571 495.967 532.057 495.58C534.457 495.21 536.027 493.8 538.137 493.32C548.207 491.01 558.877 488.01 568.197 483.46C568.907 483.11 569.577 483.41 570.107 483.19C591.277 474.2 612.617 463.42 631.427 450.15C652.347 435.383 672.071 418.153 690.597 398.46C692.171 396.793 693.244 395.26 693.817 393.86C693.937 393.58 694.147 393.397 694.447 393.31C695.234 393.097 695.714 392.59 695.887 391.79C695.954 391.483 696.097 391.22 696.317 391C701.017 386.25 705.827 381.09 709.487 375.49C709.907 374.857 710.527 374.02 711.347 372.98C725.194 355.547 736.867 335.87 746.367 313.95C748.497 309.03 750.457 303.2 752.607 297.79C754.717 292.47 756.077 287.85 757.537 282.55C773.757 283.87 789.994 283.783 806.247 282.29C827.494 281.93 848.851 281.763 870.317 281.79C875.131 281.797 879.911 282.09 884.657 282.67C884.822 282.691 884.98 282.748 885.119 282.839C885.258 282.93 885.375 283.052 885.46 283.195C885.545 283.337 885.596 283.498 885.609 283.663C885.623 283.829 885.598 283.995 885.537 284.15C883.911 288.37 882.501 292.713 881.307 297.18C879.914 302.387 877.094 309.657 872.847 318.99Z" fill="#FCDE02"/>
<path d="M75.2474 300.37C80.3284 300.37 84.4474 296.251 84.4474 291.17C84.4474 286.089 80.3284 281.97 75.2474 281.97C70.1663 281.97 66.0474 286.089 66.0474 291.17C66.0474 296.251 70.1663 300.37 75.2474 300.37Z" fill="#FCDE02"/>
<path d="M355.667 486.47C341.394 482.283 330.654 478.52 323.447 475.18C285.857 457.78 254.427 438.76 222.887 413.08C198.127 392.93 179.067 370.52 161.827 345.66C158.427 340.76 156.617 335.89 154.417 330.53C154.284 330.197 154.054 329.957 153.727 329.81C151.607 328.843 149.994 327.313 148.887 325.22C148.687 324.853 148.527 324.87 148.407 325.27C148.167 326.063 148.167 326.88 148.407 327.72C146.427 324.66 144.791 321.423 143.497 318.01C142.947 316.55 143.397 315.33 142.867 313.97C140.734 308.457 138.581 302.953 136.407 297.46C136.067 296.593 135.894 295.84 135.887 295.2C135.889 295.066 135.932 294.936 136.013 294.828C136.093 294.721 136.206 294.642 136.334 294.603C136.462 294.564 136.6 294.567 136.726 294.611C136.853 294.656 136.962 294.739 137.037 294.85L142.437 303.19C142.591 303.43 142.811 303.587 143.097 303.66C144.987 304.12 156.527 322.79 158.767 325.85C159.347 326.63 159.567 327.8 160.287 328.72C205.387 386.69 275.247 427.49 348.667 435.09C366.457 436.93 390.767 437.96 412.317 435.38C424.357 433.94 434.487 432.28 442.707 430.4C519.457 412.89 584.277 365.17 624.217 297.83C624.987 296.53 627.377 290.71 628.537 290.52C628.631 290.506 628.727 290.515 628.817 290.547C628.907 290.578 628.987 290.632 629.051 290.702C629.116 290.772 629.162 290.857 629.185 290.949C629.209 291.041 629.21 291.138 629.187 291.23C625.287 306.47 620.074 321.157 613.547 335.29C612.981 336.517 612.384 337.733 611.757 338.94C605.697 350.56 599.327 362.08 591.877 372.62C582.451 385.947 572.067 398.487 560.727 410.24C558.694 412.347 555.967 414.843 552.547 417.73C548.247 421.36 544.507 425.98 539.347 428.47C537.727 429.257 536.547 430.437 535.807 432.01C535.667 432.317 535.454 432.56 535.167 432.74C530.994 435.473 526.847 438.243 522.727 441.05C487.827 464.8 446.307 480.22 403.877 484.05C393.867 484.96 381.657 484.9 370.567 485.14C366.087 485.24 360.511 485.047 353.837 484.56C353.76 484.552 353.683 484.57 353.618 484.612C353.553 484.654 353.504 484.717 353.479 484.791C353.455 484.864 353.456 484.944 353.483 485.016C353.51 485.089 353.561 485.15 353.627 485.19L355.667 486.47Z" fill="#DEBE04"/>
<path d="M872.847 318.99C873.007 320.117 872.677 321.263 871.857 322.43C871.784 321.217 872.114 320.07 872.847 318.99Z" fill="#DEBE04"/>
<path d="M106.107 418.03C121.428 418.03 133.847 405.61 133.847 390.29C133.847 374.97 121.428 362.55 106.107 362.55C90.7868 362.55 78.3672 374.97 78.3672 390.29C78.3672 405.61 90.7868 418.03 106.107 418.03Z" fill="#DEBE04"/>
<path d="M215.147 433.16C216.374 434.027 217.517 435.047 218.577 436.22C219.937 437.72 222.507 438.67 222.647 441.34C219.634 439.153 217.134 436.427 215.147 433.16Z" fill="#DEBE04"/>
</svg>
